<?xml version="1.0" encoding="iso-8859-1"?>
<!-- Uploaded to: SVG Repo, www.svgrepo.com, Generator: SVG Repo Mixer Tools -->
<svg version="1.1" id="Layer_1" xmlns="http://www.w3.org/2000/svg" xmlns:xlink="http://www.w3.org/1999/xlink" 
	 viewBox="0 0 512.001 512.001" xml:space="preserve">
<g>
	<rect x="172.977" y="31.279" style="fill:#9E6F91;" width="55.569" height="40.964"/>
	<path style="fill:#9E6F91;" d="M194.896,154.009c-7.042,0-13.6-4.463-15.938-11.513c-2.919-8.803,1.851-18.307,10.654-21.227
		c31.74-10.525,48.806-53.92,48.969-54.356c3.26-8.684,12.942-13.081,21.625-9.822c8.684,3.259,13.081,12.941,9.822,21.625
		c-0.898,2.391-22.525,58.742-69.845,74.433C198.43,153.733,196.648,154.009,194.896,154.009z"/>
</g>
<path style="opacity:0.1;enable-background:new    ;" d="M254.562,107.946c10.061-15.106,15.046-28.107,15.467-29.229
	c3.259-8.684-1.138-18.366-9.822-21.625c-8.683-3.259-18.365,1.138-21.625,9.822c-0.122,0.324-9.584,24.379-27.467,41.032h43.447
	V107.946z"/>
<path style="fill:#FFA6BB;" d="M411.707,75.144l-28.523-42.495c-4.371-6.513-11.7-10.42-19.544-10.42H210.188v59.062h76.271v73.579
	h55.633v-19.532c0-13,10.538-23.538,23.538-23.538h26.532C410.996,111.801,422.203,90.782,411.707,75.144z"/>
<g style="opacity:0.1;">
	<path d="M411.707,75.144l-28.523-42.494c-4.371-6.512-11.7-10.42-19.544-10.42h-21.324c7.844,0,15.173,3.908,19.544,10.42
		l28.523,42.494c10.495,15.638-0.711,36.656-19.544,36.656h21.324C410.996,111.801,422.203,90.782,411.707,75.144z"/>
</g>
<rect x="262.313" y="139.147" style="fill:#9E6F91;" width="94.133" height="64.227"/>
<rect x="319.13" y="139.147" style="opacity:0.1;enable-background:new    ;" width="37.316" height="64.227"/>
<path style="fill:#B3EDFF;" d="M427.796,327.384l-14.023-12.262l-42.647-134.146H247.641l-42.647,134.146l-14.023,12.262
	c-12.454,10.89-17.823,27.799-13.933,43.879l34.05,140.738H407.68l34.05-140.738C445.619,355.182,440.25,338.273,427.796,327.384z"
	/>
<path style="opacity:0.1;enable-background:new    ;" d="M374.487,327.384l-14.023-12.262l-42.647-134.145h53.309l42.647,134.145
	l14.023,12.262c12.454,10.889,17.823,27.799,13.933,43.879l-34.05,140.738H354.37l34.05-140.738
	C392.31,355.182,386.941,338.273,374.487,327.384z"/>
<g>
	<path style="fill:#B3EDFF;" d="M108.236,59.757H77.021c-4.416,0-7.996-3.58-7.996-7.996s3.58-7.996,7.996-7.996h31.215
		c4.416,0,7.996,3.58,7.996,7.996S112.652,59.757,108.236,59.757z"/>
	<path style="fill:#B3EDFF;" d="M129.559,38.433c-2.046,0-4.093-0.78-5.654-2.342L101.464,13.65c-3.123-3.123-3.123-8.185,0-11.308
		c3.123-3.123,8.186-3.123,11.308,0l22.441,22.441c3.123,3.123,3.123,8.185,0,11.308C133.652,37.653,131.606,38.433,129.559,38.433z
		"/>
	<path style="fill:#B3EDFF;" d="M107.118,103.522c-2.046,0-4.093-0.78-5.654-2.342c-3.123-3.123-3.123-8.185,0-11.308l22.441-22.441
		c3.123-3.123,8.186-3.123,11.308,0c3.123,3.123,3.123,8.185,0,11.308l-22.441,22.441
		C111.211,102.741,109.165,103.522,107.118,103.522z"/>
</g>
<g style="opacity:0.1;">
	<path d="M377.746,323.118H241.019c-4.416,0-7.996-3.58-7.996-7.996s3.58-7.996,7.996-7.996h136.726c4.417,0,7.996,3.58,7.996,7.996
		S382.162,323.118,377.746,323.118z"/>
</g>
</svg>