<?xml version="1.0" encoding="iso-8859-1"?>
<!-- Uploaded to: SVG Repo, www.svgrepo.com, Generator: SVG Repo Mixer Tools -->
<svg height="800px" width="800px" version="1.1" id="Layer_1" xmlns="http://www.w3.org/2000/svg" xmlns:xlink="http://www.w3.org/1999/xlink" 
	 viewBox="0 0 511.988 511.988" xml:space="preserve">
<path style="fill:#DA4453;" d="M511.894,220.213l-27.188-20.015c-43.107-55.968-132.09-75.42-228.713-8.234
	c-4.578,3.172-9.555,5.906-14.867,8.234L0,201.354c0,0,0,61.701,0,62.826c0,90.264,63.998,162.466,248.58,162.466
	c163.098,0,263.408-36.093,263.408-144.419C511.988,274.945,511.894,220.213,511.894,220.213z"/>
<path style="opacity:0.1;enable-background:new    ;" d="M426.646,401.631v-78.53h-21.328v85.905
	C412.787,406.771,419.896,404.334,426.646,401.631z"/>
<path style="opacity:0.1;enable-background:new    ;" d="M362.648,418.645v-75.107H341.32v78.17
	C348.648,420.817,355.742,419.802,362.648,418.645z"/>
<path style="opacity:0.1;enable-background:new    ;" d="M298.648,425.364v-73.827h-21.327v74.718
	C284.587,426.036,291.681,425.755,298.648,425.364z"/>
<path style="opacity:0.1;enable-background:new    ;" d="M234.658,426.505v-74.968h-21.335v74.171
	C220.237,426.083,227.347,426.364,234.658,426.505z"/>
<path style="opacity:0.1;enable-background:new    ;" d="M170.66,421.567v-74.858h-21.336v71.218
	C156.168,419.286,163.269,420.505,170.66,421.567z"/>
<path style="opacity:0.1;enable-background:new    ;" d="M106.661,406.271V323.1H85.326v74.312
	C91.997,400.599,99.098,403.568,106.661,406.271z"/>
<path style="fill:#ED5564;" d="M255.994,127.98C181.363,179.854,0,109.934,0,200.198c0,90.263,63.998,162.48,248.58,162.48
	c163.098,0,263.408-36.108,263.408-144.434C511.988,109.934,391.521,33.764,255.994,127.98z"/>
<path style="fill:#CCD1D9;" d="M106.661,266.648c-17.343,0-31.999-9.765-31.999-21.327c0-11.562,14.656-21.328,31.999-21.328
	c17.344,0,31.999,9.766,31.999,21.328S124.005,266.648,106.661,266.648z"/>
<path style="fill:#E6E9ED;" d="M106.661,213.322c-23.562,0-42.663,14.328-42.663,32c0,17.67,19.102,31.999,42.663,31.999
	c23.562,0,42.663-14.328,42.663-31.999C149.324,227.65,130.223,213.322,106.661,213.322z M106.661,255.993
	c-13.234,0-21.335-6.905-21.335-10.671s8.101-10.672,21.335-10.672s21.336,6.906,21.336,10.672S119.895,255.993,106.661,255.993z"/>
<path style="fill:#F5F7FA;" d="M140.457,352.053c30.219,6.859,66.038,10.625,108.123,10.625c17.781,0,34.819-0.438,51.053-1.344
	l-60.076-81.592L140.457,352.053z"/>
<path style="fill:#E6E9ED;" d="M232.408,231.087c-13.187-36.968-20.241-70.326-23.085-85.686c-6.844,1.219-13.945,2.094-21.203,2.75
	c2.812,15.531,10.016,50.265,24.062,89.732c4.82,13.562,10.023,26.436,15.562,38.577c-10.352,14.391-30.758,30.609-59.491,47.218
	c-22.195,12.828-42.312,21.766-46.413,23.546c10.336,3.031,21.421,5.656,33.288,7.828c24.703-12.53,61.28-33.577,82.959-57.592
	c4.039,7.609,8.227,14.874,12.555,21.749c10.391,16.484,21.633,30.796,33.601,42.827c10.344-0.375,20.405-0.938,30.124-1.672
	C273.556,328.35,247.455,273.289,232.408,231.087z"/>
</svg>