<?xml version="1.0" encoding="utf-8"?>
<!-- Generator: Adobe Illustrator 24.0.0, SVG Export Plug-In . SVG Version: 6.00 Build 0)  -->
<svg version="1.1" id="Layer_1" xmlns="http://www.w3.org/2000/svg" xmlns:xlink="http://www.w3.org/1999/xlink" x="0px" y="0px"
	 viewBox="0 0 800 600" style="enable-background:new 0 0 800 600;" xml:space="preserve">
<style type="text/css">
	.st0{fill-rule:evenodd;clip-rule:evenodd;fill:#E40520;}
	.st1{fill-rule:evenodd;clip-rule:evenodd;fill:#FFFFFF;}
	.st2{fill-rule:evenodd;clip-rule:evenodd;fill:#00904A;}
</style>
<g>
	<path class="st0" d="M617.7,525.4c0,11.4,0.6,20.8,0.6,20.8h-24.5l-0.1-31.5c0-10.7-3.2-14.5-9.1-14.5c-7.7,0-11.6,5.8-11.6,18
		l0,28h-24.1c0.7-18.7,0-46.8-0.6-64.1h21.7c0,0,0.5,2.6,0.5,6.8l0,2.4c3-4.1,11.9-11.1,22.7-10.6c10.8,0.5,18.5,5.7,21.9,12.8
		c1.9,4,2.5,10.1,2.6,14.6L617.7,525.4L617.7,525.4z"/>
	<path class="st0" d="M306.8,538c-3.7,4.1-12.2,10-21.8,9.3c-13.6-1-24.3-7.1-24.3-27.1l0.1-38.1H285l0,31.5
		c0,10.7,2.9,14.5,8.8,14.5c7.7,0,11.4-7,11.4-18l0-28h23.9c-0.7,18.7,0,46.8,0.6,64.1h-21.7C306.7,544.2,306.8,538,306.8,538
		L306.8,538z"/>
	<path class="st0" d="M517.7,538.1c0,5.7,0.5,8.1,0.5,8.1h20.8c0,0-0.6-11-0.6-32.3c0-0.3,0.1-13.4-1.6-17.2
		c-1.7-3.7-5.3-12.5-20.6-15.5c-15.3-3-31.6,2.8-34,4.6v15.8c0,0,10.5-5.7,18.7-5.7c6.2,0,14.9,0.4,15.3,9.4c0,0-3.2-0.1-7.9-0.1
		c-15,0-33.7,2.9-34,21.1c-0.3,14.3,12.3,20.9,23.3,20.6C497.6,546.8,510.2,547.4,517.7,538.1L517.7,538.1z"/>
	<path class="st1" d="M497.2,525.6c-0.5-9,16.9-7.8,19.1-7C516.4,533.8,497.7,535.6,497.2,525.6L497.2,525.6z"/>
	<path class="st0" d="M443.7,514.7c0-10.7-3.8-14.4-8.8-14.4c-7.7,0-11.6,5.7-11.6,17.9l0,27.9h-23.8l0-82.9h24l0.1,25.2
		c4-3.6,11.2-8.3,20-7.8c10.7,0.5,24.5,5.5,24.5,28.6c0,8.6,0,36.8,0,36.8h-24.2L443.7,514.7L443.7,514.7z"/>
	<path class="st0" d="M390,502.9c-8.7-7-29.6-6.2-29.6,10.4c0,18.6,22.7,18.1,31.3,11.7l0.6,18.2c-12.2,6.3-56.2,8.5-56.2-29.6
		c0-38.1,43.4-36.1,55.6-28.9L390,502.9L390,502.9z"/>
	<polygon class="st0" points="197.4,529.5 191.2,546.4 165.6,546.4 198.4,461 226.5,461 259.3,546.2 232.2,546.2 226.3,529.5 
		197.4,529.5 	"/>
	<polygon class="st1" points="219.7,510.4 212,486 204,510.4 219.7,510.4 	"/>
	<path class="st0" d="M568.9,163.4c6.5-2.4,14.7-7.8,17.4-9.9c-4.4-2.2-7.7-4.6-12-8.9c-4.1-4.1-13.6-22.8-50.4-22.8
		c-39.6,0-56.4,27.4-56.4,49.1c0,2.5-0.1,5.8,0.5,9c-51.2,24.2-97.3,51.7-148.4,114.1h130.5c-7.4,2.9-18.9,7.4-27.8,15l10.7,37.6
		c19.5-1,38-6.6,50.2-12.1c11.3-5.1,60.7-27.7,79.6-90.1c1.7-6.3,9.5-38.7,10.4-43.6c1-4.8,4-16.2,13.4-22.9
		c-2.5-2.2-9.9-8.1-17.8-11.7C566.2,165.3,566.2,164.4,568.9,163.4L568.9,163.4z"/>
	<path class="st2" d="M527.9,143.6c-11,0-19.9,8.9-19.9,19.9c0,11,8.9,19.9,19.9,19.9c11,0,19.9-8.9,19.9-19.9
		C547.7,152.4,538.9,143.6,527.9,143.6L527.9,143.6z"/>
	<path class="st0" d="M484.8,51.4H298.7l-61.4,179.4h96.6c3.1-2.5,7.6-6.2,13.5-10l42.4-137l29,94.6c3.7-2,13.4-7,17.8-9.1
		c2.4-37.4,30.3-58.4,67.1-62.7L484.8,51.4L484.8,51.4z"/>
	<path class="st0" d="M213,302.1l-46.6,135.6h112.8L312.7,331h-76.1c2.7-9,8.4-21.5,14.1-28.8L213,302.1L213,302.1z"/>
	<path class="st2" d="M453.5,343.9l28.4,93.9h29.3l-31.1-102C473.3,338.7,463.1,341.9,453.5,343.9L453.5,343.9z"/>
	<path class="st0" d="M561,271.5c-10.3,20-29.8,48.8-70.6,68.9l28.9,97.3h98.4C617.7,437.7,561,271.4,561,271.5L561,271.5z"/>
	<path class="st2" d="M633.2,162.4c-7-2.8-19.7-7.2-35.4-7.2c-4.6,0-9-0.4-11.5-1.7c-2.7,2.1-11,7.5-17.4,9.9c-2.7,1-2.7,1.9,0,2.9
		c8,3.6,15.3,9.4,17.8,11.7c11.6-8.5,21.3-1.1,46.5-12.6C635.9,164.3,635.9,163.4,633.2,162.4L633.2,162.4z"/>
	<path class="st2" d="M202.3,264.9c0.6,0,1,0.5,1,1c0,0.6-0.4,1-1,1c-17.5,0-29.1,12.3-30.7,26.6h96.9c-7,6.7-15.2,17.8-20.1,29.2
		h148.4l34.1,115h29.7l-27.5-91.2L422.3,309c8.9-7.6,20.3-12.1,27.8-15H319.6c51.1-62.4,97.2-89.9,148.4-114.1
		c-0.6-3.1-0.5-6.4-0.5-9c0-21.7,16.8-49.1,56.4-49.1c13.1,0,27.7,2.6,38.4,10.5c-6.3-6-26.9-17.9-49.1-17.7
		c-44.1,0.3-70.7,28.6-68.4,60.3c-28.1,12.7-77,38.9-107.9,64.2H171.7C173.9,254.1,185.4,264.9,202.3,264.9L202.3,264.9z"/>
	<path class="st1" d="M527,165.7l19.3-9.6c-2.2-5.5-6.7-9.8-12.4-11.7l-9,19.2C524.1,165.8,525,166.7,527,165.7L527,165.7z"/>
</g>
</svg>
