<?xml version="1.0" encoding="UTF-8"?>
<!-- Generator: Adobe Illustrator 17.1.0, SVG Export Plug-In . SVG Version: 6.00 Build 0)  -->
<!DOCTYPE svg PUBLIC "-//W3C//DTD SVG 1.1 Basic//EN" "http://www.w3.org/Graphics/SVG/1.1/DTD/svg11-basic.dtd">
<svg version="1.1" baseProfile="basic" id="Camada_1" xmlns="http://www.w3.org/2000/svg" xmlns:xlink="http://www.w3.org/1999/xlink" x="0px" y="0px" viewBox="0 0 616 619.6" xml:space="preserve">
<g>
	<g>
		<path fill="#FD0000" d="M98,548.5c3.7-5.7,8.3-10.4,13.8-13.9c5.5-3.6,12.1-5.4,19.9-5.4c4.3,0,8.3,0.7,11.9,2.2    c3.6,1.5,6.6,3.6,9.2,6.2c2.6,2.7,4.5,5.8,5.8,9.4c1.4,3.6,2,7.5,2,11.7c0,3.2-0.5,7.2-1.6,11.9c-1.1,4.7-2.2,9.7-3.6,15    c-1.4,4.6-2.4,8.6-3.3,12.2c-0.8,3.5-1.2,6.2-1.2,7.9c0,2.5,0.6,4.3,1.9,5.4c1.3,1.1,3.2,1.8,5.7,2c0.1,0,0.1,0.5-0.1,1.5    c-0.2,1-0.7,2-1.4,3.1c-0.8,1.1-1.9,2.2-3.4,3.2c-1.6,1-3.8,1.5-6.6,1.5c-4.7,0-8.3-1.3-10.8-3.9c-2.5-2.6-3.7-6.1-3.7-10.6    c0-2.6,0.4-5.9,1.3-9.8c0.8-3.9,2-8.3,3.3-13.3c1.2-4.4,2.3-8.6,3.1-12.4c0.8-3.8,1.2-6.9,1.2-9.1c0-5.7-1.5-10.1-4.5-13.4    c-3-3.2-7-4.8-11.8-4.8c-5.3,0-9.9,1.2-13.7,3.7c-3.8,2.5-7.6,6.5-11.3,12.1l-11,51.8c-0.7,3.3-1.9,5.6-3.4,6.9    c-1.5,1.2-3.5,1.9-6,1.9h-1.8c-2.5,0-4.5-0.6-5.9-1.8c-1.5-1.2-1.9-3.5-1.1-7l8.9-42.7c1.6-7.4,0.9-13.4-1.9-18    c-2.9-4.6-7.3-6.9-13.3-6.9c-5.4,0-10.1,1.3-13.8,3.8c-3.8,2.5-7.5,6.7-11.3,12.4l-11,51.5c-0.6,3.5-1.7,5.8-3.3,7    c-1.6,1.2-3.6,1.8-6,1.8h-2c-2.5,0-4.4-0.6-5.9-1.9c-1.4-1.2-1.8-3.5-1.2-6.9l17.3-81.2c0.3-0.6,1.9-0.9,4.6-0.9    c1.5,0,2.9,0.2,4.3,0.6c1.3,0.4,2.5,1.2,3.5,2.2c1,1.1,1.7,2.5,2.2,4.3c0.5,1.8,0.6,4.1,0.4,6.8c3.6-5.1,7.9-8.9,12.9-11.5    c5-2.6,10.3-3.9,15.9-3.9c6.8,0,12.6,1.7,17.3,5.2C93,537.9,96.2,542.6,98,548.5z"/>
		<path fill="#FD0000" d="M242.2,604.1c-3.8,6.1-8.7,10.7-14.5,14c-5.8,3.3-12.1,4.9-18.9,4.9c-4.8,0-9.3-0.8-13.6-2.5    c-4.2-1.7-7.9-4.1-11.1-7.2c-3.2-3.2-5.7-7.1-7.5-11.7c-1.8-4.7-2.8-10-2.8-15.9c0-7.1,1.2-14,3.7-20.7c2.5-6.7,5.9-12.8,10.3-18    c4.4-5.3,9.7-9.5,15.8-12.8c6.1-3.3,12.9-4.9,20.2-4.9c6.9,0,13.1,1.5,18.4,4.6c5.3,3.1,9.3,7.3,11.9,12.6    c1.4-5.8,3.1-9.9,5.3-12.2c2.2-2.4,5.2-3.5,9.2-3.5c1.9,0,3.4,0.3,4.7,0.9c1.3,0.6,2,1.1,2,1.3l-14.3,67.5c-1,4.7-1,8,0,9.9    c1,1.9,3.4,3.1,7.2,3.4c0.1,0,0.1,0.5,0,1.4c-0.1,0.9-0.5,1.9-1.2,3c-0.7,1.1-1.8,2-3.3,3c-1.5,0.9-3.7,1.4-6.4,1.4    c-5.8,0-9.9-1.7-12.4-4.9C242.4,614.3,241.5,609.8,242.2,604.1z M241.3,549.4c-4.2-3.6-9.6-5.4-16.4-5.4c-5.1,0-9.7,1.2-13.8,3.5    c-4.1,2.4-7.6,5.4-10.4,9.2c-2.9,3.8-5,8.1-6.5,12.8c-1.5,4.8-2.2,9.6-2.2,14.4c0,7.6,2.1,13.4,6.4,17.6c4.3,4.1,9.4,6.2,15.3,6.2    c4.1,0,8-0.8,11.7-2.3c3.7-1.5,7.1-3.7,10-6.4c3-2.7,5.5-5.9,7.5-9.6c2.1-3.7,3.5-7.5,4.4-11.6l3-13.9    C248.5,557.9,245.5,553.1,241.3,549.4z"/>
		<path fill="#FD0000" d="M313,546.3c6.1-11.4,14.2-17.1,24.5-17.1c4,0,7.3,0.9,10.1,2.7c2.8,1.8,4.2,4.3,4.2,7.5    c0,2.2-0.4,4.1-1.2,5.8c-0.8,1.6-1.7,2.9-2.7,3.8c-1,0.9-1.9,1.6-2.7,2c-0.8,0.4-1.3,0.5-1.4,0.4c-1.2-1.3-2.8-2.5-4.7-3.5    c-1.8-1-4.3-1.5-7.2-1.5c-3.3,0-6.4,0.9-9.1,2.8c-2.7,1.9-5.2,4.5-7.4,7.9c-2.3,3.4-4.2,7.5-5.9,12.1c-1.7,4.6-3.1,9.7-4.2,15.3    l-5.9,28.4c-0.6,3.2-1.6,5.5-3,6.8c-1.3,1.3-3.1,2-5.4,2h-2.2c-2.5,0-4.5-0.6-6.2-1.9c-1.7-1.2-2.2-3.5-1.6-6.9l17.3-81.2    c0.4-0.6,1.9-0.9,4.7-0.9c1.6,0,3.1,0.3,4.6,0.7c1.4,0.5,2.6,1.3,3.6,2.5c1,1.2,1.7,2.8,2.1,4.7    C313.7,540.7,313.6,543.2,313,546.3z"/>
		<path fill="#FD0000" d="M414.2,622.5c-2.2,0-4.2-0.3-5.9-0.9c-1.7-0.6-3.3-1.6-4.9-3.1c-1.6-1.5-3.3-3.5-5.2-6.2    c-1.9-2.7-4-6.1-6.5-10.3l-15.6-25.6c-0.4,2.1-0.7,4-1.1,5.7c-0.4,1.7-0.8,3.6-1.2,5.9c-0.4,2.3-0.9,4.5-1.4,6.7    c-1.1,5.3-2.4,11.4-3.9,18.2c-0.6,3.2-1.6,5.5-3,6.8c-1.4,1.3-3.2,2-5.4,2h-2.2c-2.5,0-4.6-0.6-6.2-1.9c-1.7-1.2-2.2-3.5-1.6-6.9    l23.6-110.9c0.6-3.2,1.6-5.5,3-6.8c1.4-1.3,3.2-2,5.4-2h2.2c2.5,0,4.6,0.6,6.2,1.9c1.7,1.2,2.2,3.5,1.6,6.9l-14.5,68l48.5-40.7    c0-0.1,0.5-0.1,1.5,0.2c1,0.3,2.1,0.7,3.3,1.4c1.2,0.7,2.2,1.7,3.2,2.9c0.9,1.3,1.4,2.9,1.4,4.8c0,3.3-2.4,6.9-7,10.6l-33.8,27    l13.2,20.3c1.8,3,3.5,5.3,4.8,7.1c1.4,1.8,2.7,3.2,4,4.1c1.3,0.9,2.7,1.6,4.2,1.9c1.5,0.4,3.3,0.6,5.4,0.8c0.1,0,0.2,0.6,0.2,1.9    c0,1.3-0.4,2.7-1.1,4.2c-0.7,1.5-1.9,2.9-3.6,4.2C419.9,621.8,417.4,622.5,414.2,622.5z"/>
		<path fill="#FD0000" d="M454.2,581.8c-0.1,0.6-0.2,1.2-0.2,1.8c0,0.5,0,1.2,0,1.8c0,7.1,2.1,12.8,6.2,17.1    c4.2,4.3,10.3,6.5,18.3,6.5c6.6,0,12.1-1.2,16.7-3.6c4.6-2.4,8.6-5.8,11.9-10.3c0.1-0.1,0.6-0.1,1.5,0.1c0.9,0.2,1.8,0.5,2.9,1.1    c1,0.6,2,1.4,2.8,2.4c0.8,1.1,1.2,2.4,1.2,4c0,1.9-0.3,3.4-0.9,4.7c-0.6,1.3-1.8,2.8-3.5,4.6c-3.7,3.6-8.2,6.3-13.6,8.3    c-5.3,1.9-11.8,2.9-19.3,2.9c-6.8,0-12.8-0.9-17.8-2.8c-5.1-1.9-9.3-4.4-12.7-7.8c-3.4-3.3-6-7.3-7.7-11.8    c-1.7-4.5-2.6-9.4-2.6-14.7c0-8.2,1.5-15.7,4.4-22.6c2.9-6.9,6.9-12.8,12-17.9c5.1-5.1,11-9,17.8-11.9c6.8-2.9,14.2-4.3,22.1-4.3    c10.8,0,19.1,2.3,24.9,6.8c5.8,4.5,8.7,10.5,8.7,17.9c0,4.5-0.8,8.5-2.5,12.1c-1.7,3.6-4.5,6.7-8.5,9.2c-3.9,2.5-9.2,4.5-15.9,5.8    c-6.6,1.3-15,1.9-25,1.9c-3.2,0-6.6-0.1-10-0.3C461.8,582.4,458.1,582.2,454.2,581.8z M457.1,569c6.2,0.7,11.7,1.1,16.5,1.1    c7.3,0,13.3-0.4,18-1.3c4.7-0.9,8.5-2,11.3-3.4c2.8-1.4,4.7-3.1,5.8-5c1.1-1.9,1.7-3.9,1.7-5.9c0-3-1.5-5.6-4.4-8    c-2.9-2.3-7.4-3.5-13.3-3.5c-4.1,0-8,0.7-11.7,2c-3.7,1.4-7.1,3.2-10.1,5.5c-3,2.3-5.7,5-8.1,8.2    C460.5,561.8,458.6,565.2,457.1,569z"/>
		<path fill="#FD0000" d="M565.5,623.2c-9.3,0-16.1-2.8-20.4-8.4c-4.3-5.6-5.2-13.9-2.9-24.8l9.1-43.5h-6.1c-4.8,0-7.3-1.6-7.3-4.8    c0-1,0.3-2.4,0.8-4.2c0.5-1.8,1.2-3.2,2.2-4.2c0.6-0.6,1.4-1.1,2.4-1.4c1-0.3,2.4-0.5,4.1-0.5h7l1.5-7.2c1.1-5.6,2.8-9.5,4.9-11.8    c2.2-2.3,5.2-3.4,9.2-3.4c2,0,3.7,0.3,5,0.9c1.3,0.6,2,1.1,1.9,1.3l-4.3,20.2h19.2c4.9,0,7.4,1.5,7.4,4.6c0,1.1-0.2,2.6-0.7,4.4    c-0.5,1.8-1.2,3.2-2.2,4.2c-0.6,0.6-1.4,1.1-2.4,1.4c-1,0.3-2.4,0.5-4.1,0.5h-20.5l-9.3,43.1c-1.4,6.8-1.1,11.7,0.9,14.6    c1.9,2.9,5,4.4,9.4,4.4c2.5,0,4.8-0.5,6.9-1.7c2.1-1.1,3.7-2.3,4.8-3.5c0.2-0.3,0.9,0.3,1.9,1.6c1,1.3,1.6,3,1.6,5.1    c0,2.8-1.2,5.4-3.5,7.8c-1.6,1.6-3.8,2.9-6.6,3.9C572.6,622.7,569.3,623.2,565.5,623.2z"/>
	</g>
	<g>
		<path fill="#FE6766" d="M179.6,13.9L10.3,177.7c-8.4,7.2-13.9,15.6-13.9,27.7c0,12,5.4,20.5,13.9,27.7l169.4,163.7    c1.1,1.1,2.1,1.6,3,1.6c1.6,0,2.7-1.4,2.7-3.2c-0.1-1-0.5-2.2-1.5-3.2c-39.8-49.4-68.7-106.1-68.7-186.1    c0-80.1,28.9-137.9,68.7-187.3c1-1,1.4-2.1,1.5-3.2c0-1.7-1.1-3.2-2.7-3.2C181.8,12.3,180.7,12.8,179.6,13.9"/>
		<path fill="#FD0000" d="M309.8,0c-66.3,0-92.2,94-92.2,206c0,112,25.9,204.8,92.2,204.8c39.8,0,73.7-23.3,73.8-42.5    c0-4.2-1.6-8.2-5.1-11.7c-18.9-18.2-26.2-36.4-26.3-52.5c-0.1-30.7,26.5-53.5,51-53.5c33.7,0,53.6,26.5,53.6,60.8    c0,32.6-13.9,59.7-28.9,81.3c-0.6,0.9-0.9,1.9-0.9,2.8c0,1.7,1,3.1,2.5,3.1c0.9,0,2-0.5,3.2-1.7l169.4-163.7    c8.5-7.2,13.9-15.7,13.9-27.7c0-12.1-5.4-20.5-13.9-27.7L432.8,13.9c-1.2-1.2-2.3-1.6-3.2-1.6c-1.5,0-2.5,1.4-2.5,3.1    c0,0.9,0.3,1.8,0.9,2.7c15.1,21.7,28.9,48.8,28.9,81.3c0,34.3-19.9,60.8-53.6,60.8c-24.5,0-51.1-22.8-51-53.5    c0.1-16.1,7.4-34.3,26.3-52.5c3.5-3.5,5.1-7.5,5.1-11.7C383.6,23.3,349.6,0,309.8,0z"/>
	</g>
</g>
</svg>