<?xml version="1.0" encoding="UTF-8" standalone="no"?>
<!-- Created with Inkscape (http://www.inkscape.org/) -->
<svg xmlns:dc="http://purl.org/dc/elements/1.1/" xmlns:cc="http://creativecommons.org/ns#" xmlns:rdf="http://www.w3.org/1999/02/22-rdf-syntax-ns#" xmlns:svg="http://www.w3.org/2000/svg" xmlns="http://www.w3.org/2000/svg" xmlns:sodipodi="http://sodipodi.sourceforge.net/DTD/sodipodi-0.dtd" xmlns:inkscape="http://www.inkscape.org/namespaces/inkscape" id="svg2" version="1.1" inkscape:version="0.91 r13725" xml:space="preserve" width="600" height="200" viewBox="0 0 599.99999 200" sodipodi:docname="Carrefour_City_(2011).svg"><metadata id="metadata8"><rdf:RDF><cc:Work rdf:about=""><dc:format>image/svg+xml</dc:format><dc:type rdf:resource="http://purl.org/dc/dcmitype/StillImage"/><dc:title/></cc:Work></rdf:RDF></metadata><defs id="defs6"/><sodipodi:namedview pagecolor="#ffffff" bordercolor="#666666" borderopacity="1" objecttolerance="10" gridtolerance="10" guidetolerance="10" inkscape:pageopacity="0" inkscape:pageshadow="2" inkscape:window-width="1280" inkscape:window-height="691" id="namedview4" showgrid="false" fit-margin-left="5" fit-margin-bottom="5" fit-margin-top="5" fit-margin-right="5" inkscape:zoom="0.61249202" inkscape:cx="-151.17834" inkscape:cy="3.6983899" inkscape:window-x="0" inkscape:window-y="1" inkscape:window-maximized="1" inkscape:current-layer="g10"/><g id="g10" inkscape:groupmode="layer" inkscape:label="RADD_BD_13062012" transform="matrix(1.25,0,0,-1.25,-103.77988,817.38316)"><g id="g3503" transform="matrix(4.8914903,0,0,4.8914903,-305.0964,-1739.5445)"><path d="M 92.445545,487.76358 80.639582,476.34252 c -0.588281,-0.50088 -0.966461,-1.08917 -0.966461,-1.92956 0,-0.83705 0.37818,-1.42701 0.966461,-1.93125 L 92.445545,461.0657 c 0.07563,-0.0773 0.14959,-0.10921 0.211781,-0.10921 0.110937,0 0.18825,0.10252 0.183207,0.22186 -0.0017,0.0707 -0.03194,0.15128 -0.102534,0.22019 -2.769964,3.44397 -4.786929,7.39217 -4.786929,12.97412 0,5.58531 2.016965,9.61083 4.786929,13.05648 0.0706,0.0689 0.100852,0.14959 0.102534,0.22019 0.005,0.12269 -0.07228,0.22186 -0.183207,0.22186 -0.06219,0 -0.136146,-0.0303 -0.211781,-0.10754" style="fill:#bfd832;fill-opacity:1;fill-rule:nonzero;stroke:none" id="path490" inkscape:connector-curvature="0"/><path d="m 101.52088,488.73138 c -4.622215,0 -6.429079,-6.55009 -6.429079,-14.35911 0,-7.81069 1.806864,-14.27169 6.429079,-14.27169 2.775,0 5.13821,1.62365 5.14493,2.95821 0.003,0.29246 -0.11088,0.57316 -0.35464,0.81688 -1.31439,1.26899 -1.8304,2.53968 -1.83376,3.6591 -0.009,2.13966 1.8472,3.73139 3.55658,3.73139 2.35312,0 3.73979,-1.84721 3.73979,-4.24067 0,-2.26741 -0.96815,-4.15494 -2.01696,-5.66767 -0.042,-0.0639 -0.0605,-0.1311 -0.0605,-0.1933 0,-0.11764 0.0705,-0.21513 0.1748,-0.21513 0.0639,0 0.13783,0.0353 0.2185,0.11597 l 11.80933,11.41601 c 0.58828,0.50592 0.96646,1.09421 0.96646,1.93293 0,0.8404 -0.37818,1.42869 -0.96646,1.92956 l -11.80933,11.41938 c -0.0807,0.0824 -0.15464,0.11598 -0.2185,0.11598 -0.10587,0 -0.1748,-0.0975 -0.1748,-0.21851 0,-0.0588 0.0185,-0.12774 0.0605,-0.18993 1.04881,-1.51104 2.01696,-3.40195 2.01696,-5.66767 0,-2.39178 -1.38667,-4.24067 -3.73979,-4.24067 -1.70938,0 -3.56498,1.59172 -3.55658,3.72971 0.003,1.11941 0.51937,2.3901 1.83376,3.66079 0.24371,0.2454 0.35801,0.52272 0.35464,0.81518 -0.007,1.33624 -2.36993,2.96326 -5.14493,2.96326" style="fill:#bfd832;fill-opacity:1;fill-rule:nonzero;stroke:none" id="path494" inkscape:connector-curvature="0"/></g><g id="g3496" transform="matrix(22.871032,0,0,22.871032,-2835.6834,-10813.714)" style="fill:#bfd832;fill-opacity:1"><path inkscape:connector-curvature="0" id="path3486" style="fill:#bfd832;fill-opacity:1;fill-rule:nonzero;stroke:none" d="m 142.87469,500.72799 c -0.039,-0.12 -0.092,-0.368 -0.243,-0.472 -0.155,-0.096 -0.383,-0.184 -0.495,-0.202 -0.014,-10e-4 -0.027,-0.003 -0.04,-0.003 l -0.001,0 c -0.034,0 -0.069,0.009 -0.094,0.035 -0.026,0.027 -0.032,0.06 -0.032,0.086 10e-4,0.039 0.011,0.076 0.022,0.111 0.018,0.056 0.067,0.3 0.148,0.403 0.15,0.157 0.48,0.251 0.607,0.273 0.014,0.002 0.029,0.004 0.045,0.004 0.021,0 0.049,-0.003 0.076,-0.026 0.026,-0.024 0.032,-0.056 0.032,-0.082 0,-0.037 -0.009,-0.074 -0.025,-0.127 z"/><path inkscape:connector-curvature="0" id="path3488" style="fill:#bfd832;fill-opacity:1;fill-rule:nonzero;stroke:none" d="m 148.53159,499.39279 c 0.003,0.033 0.002,0.064 -0.005,0.094 -0.026,0.127 -0.133,0.208 -0.218,0.249 -0.092,0.044 -0.156,0.058 -0.188,0.06 -0.078,0.004 -0.135,-0.046 -0.172,-0.145 -0.043,-0.102 -0.097,-0.276 -0.208,-0.587 -0.158,-0.44 -0.363,-0.958 -0.781,-1.4 -0.358,-0.378 -0.593,-0.476 -0.798,-0.47 -0.1,0.008 -0.199,0.031 -0.185,0.144 0.057,0.428 0.562,2.074 0.587,2.296 0.002,0.018 0.002,0.036 -0.003,0.059 -0.005,0.022 -0.013,0.048 -0.038,0.074 -0.023,0.025 -0.062,0.04 -0.093,0.04 -0.052,-0.005 -0.163,-0.046 -0.301,-0.111 -0.131,-0.067 -0.267,-0.143 -0.307,-0.254 -0.119,-0.382 -0.579,-1.807 -0.609,-2.077 -0.015,-0.125 0.004,-0.235 0.024,-0.333 0.024,-0.116 0.117,-0.219 0.214,-0.288 0.098,-0.069 0.222,-0.098 0.375,-0.098 0.571,0.003 0.998,0.338 1.426,0.882 0.038,0.049 0.055,0.084 0.083,0.114 0.006,0.006 0.011,0.016 0.016,0.02 10e-4,0 -0.001,10e-4 0,0 -0.421,-1.76 -1.027,-2.357 -1.491,-2.595 -0.242,-0.124 -0.242,0.129 -0.341,0.082 -0.328,-0.238 -0.112,-0.748 0.251,-0.661 1.369,0.341 2.003,2.021 2.262,3.012 0.006,0.02 0.024,0.09 0.026,0.104 0.234,0.916 0.465,1.714 0.474,1.789"/><path inkscape:connector-curvature="0" id="path3490" style="fill:#bfd832;fill-opacity:1;fill-rule:nonzero;stroke:none" d="m 141.69469,499.29179 c 0.065,0.233 0.105,0.292 0.193,0.351 0.081,0.057 0.433,0.181 0.545,0.181 0.076,0 0.117,-0.042 0.117,-0.129 -0.012,-0.064 -0.687,-2.461 -0.694,-2.544 -0.001,-0.022 -0.004,-0.058 0.009,-0.072 0.011,-0.011 0.038,-0.018 0.074,-0.018 0.049,0 0.112,0.007 0.17,0.013 0.055,0.005 0.106,0.01 0.138,0.01 0.023,0 0.092,0 0.135,-0.048 0.024,-0.026 0.036,-0.061 0.032,-0.1 -0.013,-0.174 -0.544,-0.282 -0.773,-0.282 -0.224,0 -0.377,0.049 -0.469,0.149 -0.067,0.073 -0.097,0.168 -0.086,0.283 0.011,0.145 0.533,1.937 0.609,2.206"/><path inkscape:connector-curvature="0" id="path3492" style="fill:#bfd832;fill-opacity:1;fill-rule:nonzero;stroke:none" d="m 144.31249,499.20239 c -0.176,-0.63 -0.28,-1.026 -0.46,-1.719 -0.023,-0.094 -0.034,-0.164 -0.034,-0.216 0,-0.134 0.086,-0.175 0.342,-0.175 0.251,0 0.413,0.058 0.494,0.058 0.098,0 0.152,-0.017 0.152,-0.099 0,-0.239 -0.646,-0.396 -1.131,-0.396 -0.455,0 -0.618,0.174 -0.618,0.46 0,0.228 0.182,0.811 0.526,2.022 l -0.177,-0.017 c -0.11,-0.011 -0.21,-0.018 -0.273,-0.018 -0.192,0 -0.204,0.052 -0.204,0.164 0,0.291 0.169,0.338 0.636,0.342 l 0.151,0 c 0.071,0.234 0.14,0.485 0.216,0.753 0.064,0.232 0.105,0.291 0.192,0.35 0.082,0.058 0.398,0.18 0.508,0.18 0.075,0 0.116,-0.04 0.116,-0.128 -0.011,-0.063 -0.07,-0.274 -0.14,-0.518 l -0.18,-0.624 0.861,0.012 c 0.117,0 0.181,-0.012 0.181,-0.105 0,-0.175 -0.07,-0.216 -0.518,-0.262 l -0.64,-0.064 z"/><path inkscape:connector-curvature="0" id="path3494" style="fill:#bfd832;fill-opacity:1;fill-rule:nonzero;stroke:none" d="m 140.73389,499.86279 c 0.374,0 0.497,-0.073 0.497,-0.165 0,-0.086 -0.107,-0.468 -0.264,-0.436 -0.19,0.04 -0.395,0.088 -0.716,0.083 -0.851,-0.014 -1.39,-0.596 -1.475,-1.367 -0.02,-0.248 0.035,-0.443 0.163,-0.583 0.164,-0.177 0.327,-0.272 0.716,-0.272 0.37,0 0.572,0.068 0.748,0.11 0.089,0.019 0.147,0.033 0.189,0.033 0.075,0 0.117,-0.03 0.141,-0.056 0.031,-0.033 0.046,-0.078 0.042,-0.124 -0.013,-0.141 -0.167,-0.187 -0.421,-0.264 -0.413,-0.123 -0.633,-0.169 -1.059,-0.169 l 0.055,0 c -0.552,0 -0.873,0.126 -1.099,0.371 -0.172,0.185 -0.245,0.436 -0.219,0.746 0.043,0.519 0.394,1.057 0.734,1.347 0.695,0.591 1.164,0.68 1.968,0.746"/></g></g></svg>