<?xml version="1.0" encoding="iso-8859-1"?>
<!-- Uploaded to: SVG Repo, www.svgrepo.com, Generator: SVG Repo Mixer Tools -->
<svg height="800px" width="800px" version="1.1" id="Layer_1" xmlns="http://www.w3.org/2000/svg" xmlns:xlink="http://www.w3.org/1999/xlink" 
	 viewBox="0 0 480 480" xml:space="preserve">
<path style="fill:#9365B3;" d="M372.28,56h-48c-4.424,0-8,3.584-8,8v96c0,4.416,3.576,8,8,8h48c4.424,0,8-3.584,8-8V64
	C380.28,59.584,376.704,56,372.28,56z"/>
<path style="fill:#A984C2;" d="M332.28,160V64c0-4.416,3.576-8,8-8h-16c-4.424,0-8,3.584-8,8v96c0,4.416,3.576,8,8,8h16
	C335.856,168,332.28,164.416,332.28,160z"/>
<path style="fill:#FCB23C;" d="M364.28,0h-32c-13.232,0-24,10.768-24,24v16c0,13.232,10.768,24,24,24h32c13.232,0,24-10.768,24-24
	V24C388.28,10.768,377.512,0,364.28,0z"/>
<path style="fill:#FDC163;" d="M324.28,40V24c0-13.232,10.768-24,24-24h-16c-13.232,0-24,10.768-24,24v16c0,13.232,10.768,24,24,24
	h16C335.048,64,324.28,53.232,324.28,40z"/>
<path style="fill:#9365B3;" d="M364.28,152h-32c-30.872,0-56,25.12-56,56v248c0,13.232,10.768,24,24,24h96c13.232,0,24-10.768,24-24
	V208C420.28,177.12,395.152,152,364.28,152z"/>
<path style="fill:#A984C2;" d="M292.28,456V208c0-30.88,25.128-56,56-56h-16c-30.872,0-56,25.12-56,56v248c0,13.232,10.768,24,24,24
	h16C303.048,480,292.28,469.232,292.28,456z"/>
<path style="fill:#FCB23C;" d="M412.28,264h-23.904c-2.696-19.456-19.44-34.48-39.616-34.48s-36.92,15.024-39.616,34.48H284.28
	c-4.424,0-8,3.584-8,8v96c0,4.416,3.576,8,8,8h26.016c4.632,17.256,20.064,29.52,38.464,29.52c18.144,0,33.808-12.48,38.464-29.52
	h25.056c4.424,0,8-3.584,8-8v-96C420.28,267.584,416.704,264,412.28,264z"/>
<path style="fill:#FDC163;" d="M292.28,368v-96c0-4.416,3.576-8,8-8h-16c-4.424,0-8,3.584-8,8v96c0,4.416,3.576,8,8,8h16
	C295.856,376,292.28,372.416,292.28,368z"/>
<path style="fill:#FCB23C;" d="M348.28,200c17.648,0,32-14.352,32-32v-8c0-4.416-3.576-8-8-8h-48c-4.424,0-8,3.584-8,8v8
	C316.28,185.648,330.632,200,348.28,200z"/>
<path style="fill:#FDC163;" d="M332.28,168v-8c0-4.416,3.576-8,8-8h-16c-4.424,0-8,3.584-8,8v8c0,17.648,14.352,32,32,32
	c2.776,0,5.424-0.464,8-1.136C342.512,195.288,332.28,182.864,332.28,168z"/>
<g>
	<circle style="fill:#9365B3;" cx="356.68" cy="327.752" r="7.624"/>
	<circle style="fill:#9365B3;" cx="332.28" cy="311.624" r="7.624"/>
	<circle style="fill:#9365B3;" cx="339.904" cy="327.752" r="7.624"/>
	<circle style="fill:#9365B3;" cx="348.28" cy="311.624" r="7.624"/>
	<circle style="fill:#9365B3;" cx="364.28" cy="311.624" r="7.624"/>
	<circle style="fill:#9365B3;" cx="348.28" cy="343.872" r="7.624"/>
	<path style="fill:#9365B3;" d="M348.248,285.312c-1.824,3.152-1.6,6.792-0.032,9.8c3.384-0.136,6.648-1.768,8.472-4.92
		c1.824-3.152,1.6-6.8,0.032-9.8C353.328,280.528,350.064,282.16,348.248,285.312z"/>
</g>
<g>
	<path style="fill:#E6E6E6;" d="M180.28,464h-24V352c0-4.416-3.576-8-8-8s-8,3.584-8,8v112h-24c-4.424,0-8,3.584-8,8s3.576,8,8,8h64
		c4.424,0,8-3.584,8-8S184.704,464,180.28,464z"/>
	<path style="fill:#E6E6E6;" d="M229.64,207.256c-2.824-13.608-6.168-25.152-9.968-34.32c-1.232-2.984-4.16-4.936-7.392-4.936H84.68
		c-3.176,0-6.056,1.88-7.328,4.792c-5.968,13.624-9.968,30.12-12.272,41.552c-0.584,2.928,0.496,5.936,2.832,7.808
		c2.328,1.888,5.52,2.296,8.232,1.096c7.92-3.48,16.2-5.248,24.616-5.248c21.56,0,41.104,11.08,52.272,29.648
		c1.456,2.416,4.064,3.872,6.848,3.872c0.208,0,0.432-0.008,0.64-0.024c3.032-0.24,5.656-2.176,6.792-5
		C174.72,227.968,192.376,216,212.28,216c2.624,0,5.272,0.248,8.12,0.752c2.616,0.48,5.28-0.392,7.144-2.296
		C229.392,212.552,230.176,209.856,229.64,207.256z"/>
</g>
<path style="fill:#EBEBEB;" d="M89.08,214.344c2.304-11.44,6.304-27.928,12.272-41.552c1.272-2.912,4.144-4.792,7.328-4.792h-24
	c-3.176,0-6.056,1.88-7.328,4.792c-5.968,13.624-9.968,30.12-12.272,41.552c-0.584,2.928,0.496,5.936,2.832,7.808
	c2.328,1.888,5.52,2.296,8.232,1.096c4.4-1.936,8.92-3.28,13.496-4.144C88.992,217.624,88.752,215.984,89.08,214.344z"/>
<path style="fill:#F85766;" d="M229.64,207.264c-0.664-3.2-3.208-5.68-6.432-6.256c-3.768-0.68-7.352-1.008-10.928-1.008
	c-21.856,0-41.664,10.832-53.464,28.464C144.32,211.696,123.424,202,100.752,202c-10.64,0-21.088,2.216-31.056,6.6
	c-2.376,1.048-4.096,3.184-4.616,5.736c-3.352,16.552-5.36,33.56-5.36,45.504c0,53.776,39.512,97.52,88.088,97.52
	c48.608,0,88.16-43.6,88.16-97.2C235.96,246.424,233.536,226.152,229.64,207.264z"/>
<path style="fill:#F97985;" d="M83.72,259.84c0-11.944,2.008-28.96,5.36-45.504c0.52-2.552,2.24-4.688,4.624-5.736
	c6.216-2.728,12.624-4.52,19.136-5.552c-3.96-0.624-7.976-1.048-12.08-1.048c-10.64,0-21.088,2.216-31.056,6.6
	c-2.384,1.048-4.104,3.184-4.624,5.736c-3.352,16.552-5.36,33.56-5.36,45.504c0,53.776,39.512,97.52,88.088,97.52
	c4.088,0,8.072-0.416,12.016-1.008C116.912,349.84,83.72,309.104,83.72,259.84z"/>
<g>
	<circle style="fill:#FEDDE0;" cx="107.944" cy="255.664" r="8"/>
	<circle style="fill:#FEDDE0;" cx="139.944" cy="303.664" r="8"/>
	<circle style="fill:#FEDDE0;" cx="189.96" cy="271.664" r="8"/>
</g>
</svg>