<?xml version="1.0" encoding="iso-8859-1"?>
<!-- Uploaded to: SVG Repo, www.svgrepo.com, Generator: SVG Repo Mixer Tools -->
<svg height="800px" width="800px" version="1.1" id="Layer_1" xmlns="http://www.w3.org/2000/svg" xmlns:xlink="http://www.w3.org/1999/xlink" 
	 viewBox="0 0 512 512" xml:space="preserve">
<g>
	<path style="fill:#8CC153;" d="M330.968,183.882c-2.422,0-4.859-0.82-6.859-2.5c-4.5-3.789-5.078-10.515-1.297-15.015
		c35.734-42.499,56.312-83.053,67.295-109.591c11.938-28.804,15.438-47.796,15.469-47.983c1.031-5.789,6.578-9.648,12.359-8.609
		c5.797,1.031,9.656,6.555,8.625,12.344c-0.156,0.836-3.797,20.921-16.438,51.663c-11.578,28.108-33.28,71.029-70.998,115.888
		C337.03,182.593,333.999,183.882,330.968,183.882z"/>
	<path style="fill:#8CC153;" d="M361.843,170.336c-2.594,0-5.188-0.938-7.25-2.836c-4.312-4-4.578-10.75-0.578-15.062
		c54.123-58.437,140.402-86.779,144.043-87.959c5.609-1.812,11.609,1.266,13.422,6.867c1.812,5.593-1.266,11.609-6.875,13.413
		c-1.094,0.359-84.748,27.961-134.95,82.163C367.561,169.188,364.702,170.336,361.843,170.336z"/>
</g>
<g>
	<path style="fill:#A0D468;" d="M290.578,232.084c-2.734,0-5.453-1.039-7.547-3.117c-4.156-4.164-4.156-10.914,0-15.078
		L493.792,3.128c4.172-4.164,10.922-4.164,15.078,0s4.156,10.914,0,15.07L298.108,228.967
		C296.031,231.045,293.297,232.084,290.578,232.084z"/>
	<path style="fill:#A0D468;" d="M361.843,170.336c-3.688,0-7.281-1.922-9.25-5.359c-2.922-5.101-1.156-11.617,3.938-14.546
		c52.045-29.843,118.638-43.085,121.435-43.64c5.78-1.125,11.39,2.641,12.515,8.422c1.125,5.773-2.641,11.375-8.422,12.5l0,0
		c-0.641,0.133-65.998,13.156-114.919,41.21C365.468,169.883,363.655,170.336,361.843,170.336z"/>
</g>
<path style="fill:#FC6E51;" d="M5.365,506.633c-40.937-40.937,162.95-272.111,253.401-362.554
	c60.295-60.296,169.449,48.866,109.153,109.162C277.484,343.668,46.302,547.554,5.365,506.633z"/>
<g style="opacity:0.2;">
	<path style="fill:#FFFFFF;" d="M352.843,238.163C268.204,322.809,60.286,506.82,0.428,496.493c0.703,4.094,2.312,7.515,4.938,10.14
		c40.937,40.921,272.119-162.965,362.555-253.392c32.937-32.937,15.312-80.444-17.28-106.959
		C372.67,173.367,380.217,210.796,352.843,238.163z"/>
</g>
<g>
	<path style="fill:#E9573F;" d="M152.097,259.505c9.187,9.656,22.859,23.039,30.968,29.039v-0.016
		c1.781,1.312,3.953,2.094,6.328,2.094c5.891,0,10.656-4.766,10.656-10.656c0-3.516-1.703-6.625-4.328-8.562l0.016-0.008
		c-7.297-5.391-21.312-19.256-29.562-28.014C161.502,248.694,156.8,254.077,152.097,259.505z"/>
	<path style="fill:#E9573F;" d="M213.595,191.039c6.219,7.977,18.578,22.585,33.421,33.554v-0.016
		c1.781,1.312,3.969,2.094,6.328,2.094c5.891,0,10.672-4.766,10.672-10.656c0-3.516-1.719-6.625-4.344-8.562l0.016-0.008
		c-14.625-10.805-26.984-26.406-31.296-32.148C223.595,180.343,218.658,185.601,213.595,191.039z"/>
	<path style="fill:#E9573F;" d="M94.098,329.434c6.797,7.219,16.953,17.093,25.015,23.062v-0.016
		c1.781,1.312,3.953,2.094,6.328,2.094c5.891,0,10.656-4.766,10.656-10.655c0-3.516-1.703-6.625-4.328-8.562l0.016-0.016
		c-7.641-5.625-18.406-16.297-24.234-22.734C103.004,318.23,98.52,323.84,94.098,329.434z"/>
	<path style="fill:#E9573F;" d="M55.161,416.447v-0.016c1.781,1.312,3.953,2.094,6.328,2.094c5.891,0,10.656-4.766,10.656-10.655
		c0-3.516-1.703-6.625-4.328-8.562v-0.016c-3-2.219-10.047-8.672-15.578-13.938c-4.25,6.062-8.296,12.016-12.156,17.844
		C44.943,407.761,51.396,413.666,55.161,416.447z"/>
</g>
</svg>