<?xml version="1.0" encoding="iso-8859-1"?>
<!-- Uploaded to: SVG Repo, www.svgrepo.com, Generator: SVG Repo Mixer Tools -->
<svg version="1.1" id="Layer_1" xmlns="http://www.w3.org/2000/svg" xmlns:xlink="http://www.w3.org/1999/xlink" 
	 viewBox="0 0 173.636 173.636" xml:space="preserve">
<g>
	<g>
		<path style="fill:#E94C5B;" d="M170.453,135.527c-0.526-6.515-1.07-14.21-6.387-18.756c-2.45-2.096-4.98-2.176-8.096-2.49
			c-1.496-31.485-13.864-54.33-23.94-67.248c-10.325-13.238-20.635-19.985-23.31-21.61c-0.355-0.216-0.814-0.091-1.018,0.272
			l-3.002,5.364c-0.242,0.43-0.107,0.971,0.309,1.234c5.6,3.525,40.739,27.816,42.75,82.58
			c-12.313,1.791-10.704,20.019-10.692,29.157c0.007,6.012,0.119,11.908,3.916,16.893c2.539,3.334,6.027,5.591,9.946,6.708
			c-0.109,2.168,0.75,4.514,2.671,5.633c1.055,0.616,2.272,0.464,3.11-0.441c0.988-1.065,1.482-4.104,1.466-4.311
			C171.377,166.479,171.268,145.617,170.453,135.527z"/>
	</g>
	<path style="fill:#E73C4D;" d="M154.919,171.295c-0.006,0-0.053-0.002-0.142-0.052c-1.133-0.662-1.577-2.232-1.514-3.497
		c0.055-1.087-0.648-2.067-1.694-2.366c-3.552-1.011-6.57-3.043-8.727-5.875c-3.179-4.173-3.43-9.049-3.439-15.48
		c-0.001-0.887-0.017-1.859-0.034-2.892c-0.188-11.448,0.331-22.728,8.727-23.949c1.183-0.172,2.045-1.206,2.001-2.399
		c-0.866-23.548-7.756-44.338-20.479-61.795c-8.943-12.271-18.279-19.288-22.234-21.941l1.53-2.735
		c3.92,2.578,12.55,8.975,21.272,20.156c8.078,10.358,21.869,32.696,23.447,65.922c0.057,1.157,0.949,2.099,2.104,2.215l0.748,0.073
		c2.631,0.253,4.367,0.42,6.061,1.868c4.501,3.85,5.058,10.765,5.551,16.867l0.023,0.301c0.694,8.582,1.079,28.732-10.3,30.483
		c-1.116,0.171-1.936,1.11-1.981,2.212c-0.084,0.706-0.516,2.404-0.857,2.834C154.955,171.276,154.925,171.293,154.919,171.295
		L154.919,171.295z"/>
	<g>
		<path style="fill:#46435D;" d="M50.897,31.621h-6.234v-16.92c0-5.315,2.752-10.07,7.358-12.721
			c4.607-2.652,10.102-2.639,14.696,0.033l41.6,24.187l-3.134,5.388l-41.6-24.186c-2.643-1.537-5.803-1.544-8.455-0.019
			c-2.65,1.525-4.232,4.261-4.232,7.318L50.897,31.621L50.897,31.621z"/>
		<path style="fill:#7D7B8D;" d="M47.001,29.283V14.701c0-4.468,2.313-8.467,6.185-10.695c1.897-1.091,4.025-1.669,6.154-1.669
			c2.149,0,4.295,0.587,6.202,1.696l41.586,24.211l-0.789,1.357l-41.58-24.22c-1.657-0.964-3.532-1.474-5.418-1.474
			c-1.869,0-3.728,0.501-5.377,1.45c-3.385,1.947-5.405,5.44-5.405,9.345v14.582L47.001,29.283L47.001,29.283z"/>
	</g>
	<g>
		<g>
			<path style="fill:#F9D172;" d="M51.945,64.819l-4.166-9.432l-2.854,6.465c-5.092,11.531-13.748,21.267-24.94,27.067
				C9.823,94.188,2.878,104.804,2.878,117.041v9.351c0,17.482,14.172,31.655,31.655,31.655h26.493
				c17.482,0,31.655-14.173,31.655-31.655v-9.351c0-12.646-7.416-23.56-18.135-28.631C64.398,83.609,56.48,75.089,51.945,64.819z"/>
			<g>
				<path style="fill:#E0B247;" d="M76.546,89.446c-0.652-0.367-1.319-0.714-1.999-1.036C64.398,83.609,56.48,75.09,51.945,64.819
					l-4.166-9.432l-2.854,6.465c-5.092,11.531-13.748,21.267-24.94,27.067c-0.318,0.165-0.625,0.351-0.937,0.527H76.546z"/>
				<path style="fill:#E0B247;" d="M10.947,147.497c5.795,6.474,14.214,10.55,23.586,10.55h26.493
					c9.372,0,17.788-4.076,23.584-10.55H10.947z"/>
				<path style="fill:#E0B247;" d="M92.653,127.238c0.007-0.283,0.028-0.563,0.028-0.846v-1.881H2.878v1.881
					c0,0.284,0.014,0.564,0.021,0.846H92.653z"/>
				<path style="fill:#E0B247;" d="M91.713,109.316c-0.234-0.925-0.505-1.836-0.818-2.728H4.658
					c-0.312,0.892-0.582,1.802-0.816,2.728H91.713z"/>
			</g>
		</g>
		<g>
			<g>
				<rect x="10.458" y="43.407" style="fill:#F9CF6E;" width="32.257" height="6.33"/>
				<path style="fill:#F7C54E;" d="M20.482,51.344h-7.714c-1.276,0-2.31-1.034-2.31-2.31v-4.925c0-1.276,1.034-2.31,2.31-2.31h7.714
					c1.276,0,2.309,1.034,2.309,2.31v4.925C22.791,50.31,21.758,51.344,20.482,51.344z"/>
			</g>
			<g>
				<path style="fill:#F7C54E;" d="M51.968,67.854h-8.376c-1.776,0-3.215-1.439-3.215-3.214l0,0c0-1.775,1.438-3.214,3.215-3.214
					h8.376c1.775,0,3.215,1.44,3.215,3.214l0,0C55.183,66.415,53.743,67.854,51.968,67.854z"/>
				<rect x="42.715" y="54.413" style="fill:#F9D172;" width="10.129" height="7.986"/>
				<path style="fill:#F7C54E;" d="M53.553,54.413H42.006c-1.49,0-2.7-1.209-2.7-2.7V41.528c0-1.491,1.21-2.7,2.7-2.7h11.547
					c1.492,0,2.7,1.209,2.7,2.7v10.185C56.253,53.204,55.045,54.413,53.553,54.413z"/>
				<rect x="42.395" y="36.686" style="fill:#F9D172;" width="10.769" height="2.142"/>
				<rect x="44.176" y="28.894" style="fill:#F7C54E;" width="7.208" height="7.793"/>
			</g>
		</g>
	</g>
</g>
</svg>