<?xml version="1.0" encoding="iso-8859-1"?>
<!-- Uploaded to: SVG Repo, www.svgrepo.com, Generator: SVG Repo Mixer Tools -->
<svg height="800px" width="800px" version="1.1" id="Layer_1" xmlns="http://www.w3.org/2000/svg" xmlns:xlink="http://www.w3.org/1999/xlink" 
	 viewBox="0 0 512 512" xml:space="preserve">
<polygon style="fill:#E09D70;" points="355.196,161.89 269.074,512 245.318,512 159.193,161.89 "/>
<path style="fill:#D18B5C;" d="M353.609,168.354l-1.754,7.116l-25.423-13.579h15.071L353.609,168.354L353.609,168.354z
	 M348.404,189.506L296.7,161.89h-15.071l65.024,34.729L348.404,189.506L348.404,189.506z M343.201,210.656L251.9,161.89h-15.071
	l104.622,55.882L343.201,210.656L343.201,210.656z M337.999,231.808l-130.9-69.918h-15.074l144.223,77.032L337.999,231.808
	L337.999,231.808z M332.796,252.958L162.295,161.89h-3.102l1.81,7.36l170.041,90.822L332.796,252.958L332.796,252.958z
	 M327.593,274.111l-1.751,7.116l-158.064-84.427l-2.28-9.265L327.593,274.111L327.593,274.111z M322.39,295.263l-1.751,7.116
	l-146.082-78.03l-2.28-9.268L322.39,295.263L322.39,295.263z M317.185,316.413l-1.751,7.116l-134.1-71.628l-2.28-9.268
	L317.185,316.413L317.185,316.413z M311.982,337.563l-126.152-67.381l2.283,9.268l122.12,65.229L311.982,337.563L311.982,337.563z
	 M306.78,358.715l-114.172-60.982l2.28,9.268l110.143,58.83L306.78,358.715L306.78,358.715z M301.577,379.867l-1.751,7.116
	l-98.161-52.435l-2.28-9.265L301.577,379.867L301.577,379.867z M296.374,401.017l-1.751,7.116L208.442,362.1l-2.28-9.265
	L296.374,401.017L296.374,401.017z M291.169,422.167l-78.231-41.786l2.28,9.27l74.202,39.634L291.169,422.167L291.169,422.167z
	 M285.969,443.32l-66.254-35.384l2.283,9.265l62.219,33.235L285.969,443.32L285.969,443.32z M280.766,464.472l-1.751,7.116
	l-50.24-26.835l-2.28-9.268L280.766,464.472L280.766,464.472z M275.561,485.622l-42.292-22.59l2.28,9.268l38.26,20.436
	L275.561,485.622L275.561,485.622z M270.361,506.774L269.074,512h-4.003l-22.742-12.146l-2.28-9.268L270.361,506.774z"/>
<path style="fill:#F7C29E;" d="M355.196,161.89l-1.895,7.709l-169.889,90.744l-1.751-7.116l171.004-91.335h2.532V161.89z
	 M348.805,187.881l-161.942,86.5l1.751,7.116l157.91-84.348L348.805,187.881L348.805,187.881z M342.025,215.432L192.066,295.53
	l1.751,7.116l145.928-77.948L342.025,215.432L342.025,215.432z M335.248,242.979l-137.98,73.701l1.754,7.116l133.948-71.546
	L335.248,242.979L335.248,242.979z M328.474,270.531l-2.283,9.268l-121.968,65.149l-1.751-7.116L328.474,270.531L328.474,270.531z
	 M321.695,298.08l-2.28,9.268l-109.989,58.75l-1.751-7.116L321.695,298.08L321.695,298.08z M314.918,325.632l-102.038,54.505
	l1.751,7.116L312.64,334.9L314.918,325.632L314.918,325.632z M308.141,353.181l-90.059,48.103l1.754,7.116l86.027-45.951
	L308.141,353.181L308.141,353.181z M301.364,380.733l-2.28,9.268l-74.05,39.549l-1.751-7.116L301.364,380.733L301.364,380.733z
	 M294.587,408.282l-2.28,9.268l-62.07,33.15l-1.751-7.116L294.587,408.282L294.587,408.282z M287.81,435.834l-54.117,28.905
	l1.749,7.116l50.091-26.756L287.81,435.834L287.81,435.834z M281.033,463.383l-2.28,9.265l-38.111,20.356l-1.751-7.116
	L281.033,463.383L281.033,463.383z M274.254,490.932l-30.158,16.109l1.222,4.959h4.568l22.09-11.8L274.254,490.932L274.254,490.932z
	 M178.206,239.191L322.93,161.89h-15.071l-131.403,70.185L178.206,239.191L178.206,239.191z M173.006,218.039l105.125-56.149H263.06
	l-91.805,49.035L173.006,218.039L173.006,218.039z M167.801,196.889l65.527-34.999h-15.071l-52.204,27.883L167.801,196.889
	L167.801,196.889z M162.598,175.739l25.929-13.849h-15.074l-12.604,6.731L162.598,175.739z"/>
<g>
	<path style="fill:#744C29;" d="M257.195,0c59.872,0,108.412,46.711,108.412,104.337c0,26.876-5.403,43.268,3.603,62.178
		c7.668,16.101-15.02,32.285-33.545,32.285c-7.573,0-14.56-2.416-20.177-6.489l-0.406,0.254
		c-4.114,13.353-16.956,23.094-32.164,23.094c-7.94,0-15.236-2.655-20.978-7.093c-1.574,0.064-3.156,0.105-4.746,0.105
		c-2.66,0-5.3-0.092-7.917-0.272c-5.775,4.54-13.156,7.26-21.193,7.26c-15.292,0-28.194-9.846-32.233-23.307
		c-5.606,4.05-12.573,6.451-20.12,6.451c-18.528,0-39.113-15.346-33.545-32.285c4.74-14.424,6.597-28.6,6.597-62.178
		C148.785,46.711,197.32,0,257.195,0z"/>
	<path style="fill:#A67244;" d="M166.64,79.484c6.602-19.601,18.959-44.197,45.494-56.711c16.658-7.858,17.668,9.853,7.098,13.967
		c-11.281,4.399-33.694,31.286-37.182,46.647C178.361,99.653,161.458,94.866,166.64,79.484z"/>
</g>
</svg>